<svg xmlns="http://www.w3.org/2000/svg" version="1.1" xmlns:xlink="http://www.w3.org/1999/xlink" xmlns:svgjs="http://svgjs.dev/svgjs" width="1440" height="560" preserveAspectRatio="none" viewBox="0 0 1440 560"><g mask="url(&quot;#SvgjsMask1010&quot;)" fill="none"><rect width="1440" height="560" x="0" y="0" fill="#0e2a47"></rect><path d="M-61.56 382.02L-61.56 382.02" stroke="rgba(101, 19, 82, 1)" stroke-width="1.5"></path><path d="M-61.56 382.02L38.73 386.8" stroke="rgba(101, 19, 82, 1)" stroke-width="1.5"></path><path d="M-61.56 382.02L-93.49 519.63" stroke="rgba(101, 19, 82, 1)" stroke-width="1.5"></path><path d="M-93.49 519.63L-93.49 519.63" stroke="rgba(101, 19, 82, 1)" stroke-width="1.5"></path><path d="M-93.49 519.63L-106.56 644.04" stroke="rgba(101, 19, 82, 1)" stroke-width="1.5"></path><path d="M-93.49 519.63L61.16 553.33" stroke="rgba(101, 19, 82, 1)" stroke-width="1.5"></path><path d="M-106.56 644.04L-106.56 644.04" stroke="rgba(101, 19, 82, 1)" stroke-width="1.5"></path><path d="M-106.56 644.04L61.16 553.33" stroke="rgba(101, 19, 82, 1)" stroke-width="1.5"></path><path d="M-106.56 644.04L-61.56 382.02" stroke="rgba(101, 19, 82, 1)" stroke-width="1.5"></path><path d="M-106.56 644.04L38.73 386.8" stroke="rgba(101, 19, 82, 1)" stroke-width="1.5"></path><path d="M38.73 386.8L38.73 386.8" stroke="rgba(101, 19, 82, 1)" stroke-width="1.5"></path><path d="M38.73 386.8L196.13 344.64" stroke="rgba(101, 19, 82, 1)" stroke-width="1.5"></path><path d="M61.16 553.33L61.16 553.33" stroke="rgba(101, 19, 82, 1)" stroke-width="1.5"></path><path d="M61.16 553.33L213.79 490.89" stroke="rgba(101, 19, 82, 1)" stroke-width="1.5"></path><path d="M196.13 344.64L196.13 344.64" stroke="rgba(101, 19, 82, 1)" stroke-width="1.5"></path><path d="M196.13 344.64L213.79 490.89" stroke="rgba(101, 19, 82, 1)" stroke-width="1.5"></path><path d="M196.13 344.64L368.82 400.82" stroke="rgba(101, 19, 82, 1)" stroke-width="1.5"></path><path d="M196.13 344.64L352.94 514.41" stroke="rgba(101, 19, 82, 1)" stroke-width="1.5"></path><path d="M196.13 344.64L61.16 553.33" stroke="rgba(101, 19, 82, 1)" stroke-width="1.5"></path><path d="M196.13 344.64L-61.56 382.02" stroke="rgba(101, 19, 82, 1)" stroke-width="1.5"></path><path d="M213.79 490.89L213.79 490.89" stroke="rgba(101, 19, 82, 1)" stroke-width="1.5"></path><path d="M213.79 490.89L352.94 514.41" stroke="rgba(101, 19, 82, 1)" stroke-width="1.5"></path><path d="M213.79 490.89L216.75 654.87" stroke="rgba(101, 19, 82, 1)" stroke-width="1.5"></path><path d="M216.75 654.87L216.75 654.87" stroke="rgba(101, 19, 82, 1)" stroke-width="1.5"></path><path d="M216.75 654.87L399.39 658.42" stroke="rgba(101, 19, 82, 1)" stroke-width="1.5"></path><path d="M216.75 654.87L61.16 553.33" stroke="rgba(101, 19, 82, 1)" stroke-width="1.5"></path><path d="M216.75 654.87L352.94 514.41" stroke="rgba(101, 19, 82, 1)" stroke-width="1.5"></path><path d="M216.75 654.87L368.82 400.82" stroke="rgba(101, 19, 82, 1)" stroke-width="1.5"></path><path d="M216.75 654.87L492.14 514.58" stroke="rgba(101, 19, 82, 1)" stroke-width="1.5"></path><path d="M368.82 400.82L368.82 400.82" stroke="rgba(101, 19, 82, 1)" stroke-width="1.5"></path><path d="M368.82 400.82L352.94 514.41" stroke="rgba(101, 19, 82, 1)" stroke-width="1.5"></path><path d="M368.82 400.82L492.14 514.58" stroke="rgba(101, 19, 82, 1)" stroke-width="1.5"></path><path d="M368.82 400.82L546.82 407.5" stroke="rgba(101, 19, 82, 1)" stroke-width="1.5"></path><path d="M368.82 400.82L213.79 490.89" stroke="rgba(101, 19, 82, 1)" stroke-width="1.5"></path><path d="M352.94 514.41L352.94 514.41" stroke="rgba(101, 19, 82, 1)" stroke-width="1.5"></path><path d="M352.94 514.41L492.14 514.58" stroke="rgba(101, 19, 82, 1)" stroke-width="1.5"></path><path d="M352.94 514.41L399.39 658.42" stroke="rgba(101, 19, 82, 1)" stroke-width="1.5"></path><path d="M399.39 658.42L399.39 658.42" stroke="rgba(101, 19, 82, 1)" stroke-width="1.5"></path><path d="M399.39 658.42L560.18 707.97" stroke="rgba(101, 19, 82, 1)" stroke-width="1.5"></path><path d="M399.39 658.42L492.14 514.58" stroke="rgba(101, 19, 82, 1)" stroke-width="1.5"></path><path d="M546.82 407.5L546.82 407.5" stroke="rgba(101, 19, 82, 1)" stroke-width="1.5"></path><path d="M546.82 407.5L492.14 514.58" stroke="rgba(101, 19, 82, 1)" stroke-width="1.5"></path><path d="M546.82 407.5L704.85 343.2" stroke="rgba(101, 19, 82, 1)" stroke-width="1.5"></path><path d="M546.82 407.5L648.78 247.53" stroke="rgba(101, 19, 82, 1)" stroke-width="1.5"></path><path d="M546.82 407.5L687.73 549.07" stroke="rgba(101, 19, 82, 1)" stroke-width="1.5"></path><path d="M492.14 514.58L492.14 514.58" stroke="rgba(101, 19, 82, 1)" stroke-width="1.5"></path><path d="M560.18 707.97L560.18 707.97" stroke="rgba(101, 19, 82, 1)" stroke-width="1.5"></path><path d="M560.18 707.97L637.75 663.24" stroke="rgba(101, 19, 82, 1)" stroke-width="1.5"></path><path d="M560.18 707.97L687.73 549.07" stroke="rgba(101, 19, 82, 1)" stroke-width="1.5"></path><path d="M560.18 707.97L492.14 514.58" stroke="rgba(101, 19, 82, 1)" stroke-width="1.5"></path><path d="M560.18 707.97L840.41 685" stroke="rgba(101, 19, 82, 1)" stroke-width="1.5"></path><path d="M648.78 247.53L648.78 247.53" stroke="rgba(101, 19, 82, 1)" stroke-width="1.5"></path><path d="M648.78 247.53L704.85 343.2" stroke="rgba(101, 19, 82, 1)" stroke-width="1.5"></path><path d="M648.78 247.53L806.72 339.36" stroke="rgba(101, 19, 82, 1)" stroke-width="1.5"></path><path d="M648.78 247.53L839.94 226.53" stroke="rgba(101, 19, 82, 1)" stroke-width="1.5"></path><path d="M704.85 343.2L704.85 343.2" stroke="rgba(101, 19, 82, 1)" stroke-width="1.5"></path><path d="M704.85 343.2L806.72 339.36" stroke="rgba(101, 19, 82, 1)" stroke-width="1.5"></path><path d="M704.85 343.2L839.94 226.53" stroke="rgba(101, 19, 82, 1)" stroke-width="1.5"></path><path d="M704.85 343.2L687.73 549.07" stroke="rgba(101, 19, 82, 1)" stroke-width="1.5"></path><path d="M704.85 343.2L812.99 530.82" stroke="rgba(101, 19, 82, 1)" stroke-width="1.5"></path><path d="M687.73 549.07L687.73 549.07" stroke="rgba(101, 19, 82, 1)" stroke-width="1.5"></path><path d="M687.73 549.07L637.75 663.24" stroke="rgba(101, 19, 82, 1)" stroke-width="1.5"></path><path d="M687.73 549.07L812.99 530.82" stroke="rgba(101, 19, 82, 1)" stroke-width="1.5"></path><path d="M687.73 549.07L492.14 514.58" stroke="rgba(101, 19, 82, 1)" stroke-width="1.5"></path><path d="M637.75 663.24L637.75 663.24" stroke="rgba(101, 19, 82, 1)" stroke-width="1.5"></path><path d="M637.75 663.24L840.41 685" stroke="rgba(101, 19, 82, 1)" stroke-width="1.5"></path><path d="M637.75 663.24L492.14 514.58" stroke="rgba(101, 19, 82, 1)" stroke-width="1.5"></path><path d="M839.94 226.53L839.94 226.53" stroke="rgba(101, 19, 82, 1)" stroke-width="1.5"></path><path d="M839.94 226.53L946.96 259.97" stroke="rgba(101, 19, 82, 1)" stroke-width="1.5"></path><path d="M839.94 226.53L806.72 339.36" stroke="rgba(101, 19, 82, 1)" stroke-width="1.5"></path><path d="M806.72 339.36L806.72 339.36" stroke="rgba(101, 19, 82, 1)" stroke-width="1.5"></path><path d="M806.72 339.36L946.96 259.97" stroke="rgba(101, 19, 82, 1)" stroke-width="1.5"></path><path d="M806.72 339.36L812.99 530.82" stroke="rgba(101, 19, 82, 1)" stroke-width="1.5"></path><path d="M812.99 530.82L812.99 530.82" stroke="rgba(101, 19, 82, 1)" stroke-width="1.5"></path><path d="M812.99 530.82L840.41 685" stroke="rgba(101, 19, 82, 1)" stroke-width="1.5"></path><path d="M840.41 685L840.41 685" stroke="rgba(101, 19, 82, 1)" stroke-width="1.5"></path><path d="M840.41 685L970.43 685.27" stroke="rgba(101, 19, 82, 1)" stroke-width="1.5"></path><path d="M840.41 685L687.73 549.07" stroke="rgba(101, 19, 82, 1)" stroke-width="1.5"></path><path d="M840.41 685L979.47 493.38" stroke="rgba(101, 19, 82, 1)" stroke-width="1.5"></path><path d="M957.35 -107.48L957.35 -107.48" stroke="rgba(101, 19, 82, 1)" stroke-width="1.5"></path><path d="M957.35 -107.48L1088.46 -88.09" stroke="rgba(101, 19, 82, 1)" stroke-width="1.5"></path><path d="M957.35 -107.48L1088.24 38.06" stroke="rgba(101, 19, 82, 1)" stroke-width="1.5"></path><path d="M957.35 -107.48L1007.95 96.39" stroke="rgba(101, 19, 82, 1)" stroke-width="1.5"></path><path d="M957.35 -107.48L1297.79 -91.98" stroke="rgba(101, 19, 82, 1)" stroke-width="1.5"></path><path d="M957.35 -107.48L839.94 226.53" stroke="rgba(101, 19, 82, 1)" stroke-width="1.5"></path><path d="M1007.95 96.39L1007.95 96.39" stroke="rgba(101, 19, 82, 1)" stroke-width="1.5"></path><path d="M1007.95 96.39L1088.24 38.06" stroke="rgba(101, 19, 82, 1)" stroke-width="1.5"></path><path d="M1007.95 96.39L946.96 259.97" stroke="rgba(101, 19, 82, 1)" stroke-width="1.5"></path><path d="M1007.95 96.39L1088.46 -88.09" stroke="rgba(101, 19, 82, 1)" stroke-width="1.5"></path><path d="M1007.95 96.39L1146.15 246.03" stroke="rgba(101, 19, 82, 1)" stroke-width="1.5"></path><path d="M1007.95 96.39L839.94 226.53" stroke="rgba(101, 19, 82, 1)" stroke-width="1.5"></path><path d="M946.96 259.97L946.96 259.97" stroke="rgba(101, 19, 82, 1)" stroke-width="1.5"></path><path d="M946.96 259.97L999.06 392.04" stroke="rgba(101, 19, 82, 1)" stroke-width="1.5"></path><path d="M999.06 392.04L999.06 392.04" stroke="rgba(101, 19, 82, 1)" stroke-width="1.5"></path><path d="M999.06 392.04L979.47 493.38" stroke="rgba(101, 19, 82, 1)" stroke-width="1.5"></path><path d="M999.06 392.04L1123.08 389.74" stroke="rgba(101, 19, 82, 1)" stroke-width="1.5"></path><path d="M979.47 493.38L979.47 493.38" stroke="rgba(101, 19, 82, 1)" stroke-width="1.5"></path><path d="M979.47 493.38L1092.22 517.63" stroke="rgba(101, 19, 82, 1)" stroke-width="1.5"></path><path d="M979.47 493.38L812.99 530.82" stroke="rgba(101, 19, 82, 1)" stroke-width="1.5"></path><path d="M970.43 685.27L970.43 685.27" stroke="rgba(101, 19, 82, 1)" stroke-width="1.5"></path><path d="M970.43 685.27L1153.26 696.65" stroke="rgba(101, 19, 82, 1)" stroke-width="1.5"></path><path d="M1088.46 -88.09L1088.46 -88.09" stroke="rgba(101, 19, 82, 1)" stroke-width="1.5"></path><path d="M1088.46 -88.09L1088.24 38.06" stroke="rgba(101, 19, 82, 1)" stroke-width="1.5"></path><path d="M1088.46 -88.09L1297.79 -91.98" stroke="rgba(101, 19, 82, 1)" stroke-width="1.5"></path><path d="M1088.46 -88.09L1249.54 99.98" stroke="rgba(101, 19, 82, 1)" stroke-width="1.5"></path><path d="M1088.24 38.06L1088.24 38.06" stroke="rgba(101, 19, 82, 1)" stroke-width="1.5"></path><path d="M1088.24 38.06L1249.54 99.98" stroke="rgba(101, 19, 82, 1)" stroke-width="1.5"></path><path d="M1146.15 246.03L1146.15 246.03" stroke="rgba(101, 19, 82, 1)" stroke-width="1.5"></path><path d="M1146.15 246.03L1123.08 389.74" stroke="rgba(101, 19, 82, 1)" stroke-width="1.5"></path><path d="M1146.15 246.03L1249.54 99.98" stroke="rgba(101, 19, 82, 1)" stroke-width="1.5"></path><path d="M1146.15 246.03L1285.65 358.91" stroke="rgba(101, 19, 82, 1)" stroke-width="1.5"></path><path d="M1146.15 246.03L946.96 259.97" stroke="rgba(101, 19, 82, 1)" stroke-width="1.5"></path><path d="M1146.15 246.03L999.06 392.04" stroke="rgba(101, 19, 82, 1)" stroke-width="1.5"></path><path d="M1123.08 389.74L1123.08 389.74" stroke="rgba(101, 19, 82, 1)" stroke-width="1.5"></path><path d="M1123.08 389.74L1092.22 517.63" stroke="rgba(101, 19, 82, 1)" stroke-width="1.5"></path><path d="M1123.08 389.74L1285.65 358.91" stroke="rgba(101, 19, 82, 1)" stroke-width="1.5"></path><path d="M1123.08 389.74L979.47 493.38" stroke="rgba(101, 19, 82, 1)" stroke-width="1.5"></path><path d="M1092.22 517.63L1092.22 517.63" stroke="rgba(101, 19, 82, 1)" stroke-width="1.5"></path><path d="M1092.22 517.63L999.06 392.04" stroke="rgba(101, 19, 82, 1)" stroke-width="1.5"></path><path d="M1092.22 517.63L1153.26 696.65" stroke="rgba(101, 19, 82, 1)" stroke-width="1.5"></path><path d="M1092.22 517.63L1242.27 649.28" stroke="rgba(101, 19, 82, 1)" stroke-width="1.5"></path><path d="M1153.26 696.65L1153.26 696.65" stroke="rgba(101, 19, 82, 1)" stroke-width="1.5"></path><path d="M1153.26 696.65L1242.27 649.28" stroke="rgba(101, 19, 82, 1)" stroke-width="1.5"></path><path d="M1153.26 696.65L1306.33 559.28" stroke="rgba(101, 19, 82, 1)" stroke-width="1.5"></path><path d="M1153.26 696.65L979.47 493.38" stroke="rgba(101, 19, 82, 1)" stroke-width="1.5"></path><path d="M1153.26 696.65L1429.51 670.84" stroke="rgba(101, 19, 82, 1)" stroke-width="1.5"></path><path d="M1297.79 -91.98L1297.79 -91.98" stroke="rgba(101, 19, 82, 1)" stroke-width="1.5"></path><path d="M1297.79 -91.98L1436.01 -58.87" stroke="rgba(101, 19, 82, 1)" stroke-width="1.5"></path><path d="M1297.79 -91.98L1249.54 99.98" stroke="rgba(101, 19, 82, 1)" stroke-width="1.5"></path><path d="M1297.79 -91.98L1438.97 80.6" stroke="rgba(101, 19, 82, 1)" stroke-width="1.5"></path><path d="M1297.79 -91.98L1088.24 38.06" stroke="rgba(101, 19, 82, 1)" stroke-width="1.5"></path><path d="M1249.54 99.98L1249.54 99.98" stroke="rgba(101, 19, 82, 1)" stroke-width="1.5"></path><path d="M1249.54 99.98L1438.97 80.6" stroke="rgba(101, 19, 82, 1)" stroke-width="1.5"></path><path d="M1249.54 99.98L1396.98 227.96" stroke="rgba(101, 19, 82, 1)" stroke-width="1.5"></path><path d="M1285.65 358.91L1285.65 358.91" stroke="rgba(101, 19, 82, 1)" stroke-width="1.5"></path><path d="M1285.65 358.91L1396.98 227.96" stroke="rgba(101, 19, 82, 1)" stroke-width="1.5"></path><path d="M1306.33 559.28L1306.33 559.28" stroke="rgba(101, 19, 82, 1)" stroke-width="1.5"></path><path d="M1306.33 559.28L1242.27 649.28" stroke="rgba(101, 19, 82, 1)" stroke-width="1.5"></path><path d="M1306.33 559.28L1437.02 503.72" stroke="rgba(101, 19, 82, 1)" stroke-width="1.5"></path><path d="M1306.33 559.28L1429.51 670.84" stroke="rgba(101, 19, 82, 1)" stroke-width="1.5"></path><path d="M1306.33 559.28L1285.65 358.91" stroke="rgba(101, 19, 82, 1)" stroke-width="1.5"></path><path d="M1242.27 649.28L1242.27 649.28" stroke="rgba(101, 19, 82, 1)" stroke-width="1.5"></path><path d="M1242.27 649.28L1429.51 670.84" stroke="rgba(101, 19, 82, 1)" stroke-width="1.5"></path><path d="M1436.01 -58.87L1436.01 -58.87" stroke="rgba(101, 19, 82, 1)" stroke-width="1.5"></path><path d="M1436.01 -58.87L1438.97 80.6" stroke="rgba(101, 19, 82, 1)" stroke-width="1.5"></path><path d="M1436.01 -58.87L1589.65 -105.26" stroke="rgba(101, 19, 82, 1)" stroke-width="1.5"></path><path d="M1436.01 -58.87L1602.03 75.28" stroke="rgba(101, 19, 82, 1)" stroke-width="1.5"></path><path d="M1436.01 -58.87L1249.54 99.98" stroke="rgba(101, 19, 82, 1)" stroke-width="1.5"></path><path d="M1436.01 -58.87L1396.98 227.96" stroke="rgba(101, 19, 82, 1)" stroke-width="1.5"></path><path d="M1438.97 80.6L1438.97 80.6" stroke="rgba(101, 19, 82, 1)" stroke-width="1.5"></path><path d="M1438.97 80.6L1396.98 227.96" stroke="rgba(101, 19, 82, 1)" stroke-width="1.5"></path><path d="M1438.97 80.6L1602.03 75.28" stroke="rgba(101, 19, 82, 1)" stroke-width="1.5"></path><path d="M1396.98 227.96L1396.98 227.96" stroke="rgba(101, 19, 82, 1)" stroke-width="1.5"></path><path d="M1396.98 227.96L1604.3 240.52" stroke="rgba(101, 19, 82, 1)" stroke-width="1.5"></path><path d="M1396.98 227.96L1146.15 246.03" stroke="rgba(101, 19, 82, 1)" stroke-width="1.5"></path><path d="M1437.02 503.72L1437.02 503.72" stroke="rgba(101, 19, 82, 1)" stroke-width="1.5"></path><path d="M1437.02 503.72L1429.51 670.84" stroke="rgba(101, 19, 82, 1)" stroke-width="1.5"></path><path d="M1437.02 503.72L1577.8 404.81" stroke="rgba(101, 19, 82, 1)" stroke-width="1.5"></path><path d="M1437.02 503.72L1285.65 358.91" stroke="rgba(101, 19, 82, 1)" stroke-width="1.5"></path><path d="M1437.02 503.72L1555.66 696.81" stroke="rgba(101, 19, 82, 1)" stroke-width="1.5"></path><path d="M1429.51 670.84L1429.51 670.84" stroke="rgba(101, 19, 82, 1)" stroke-width="1.5"></path><path d="M1429.51 670.84L1555.66 696.81" stroke="rgba(101, 19, 82, 1)" stroke-width="1.5"></path><path d="M1589.65 -105.26L1589.65 -105.26" stroke="rgba(101, 19, 82, 1)" stroke-width="1.5"></path><path d="M1589.65 -105.26L1602.03 75.28" stroke="rgba(101, 19, 82, 1)" stroke-width="1.5"></path><path d="M1589.65 -105.26L1438.97 80.6" stroke="rgba(101, 19, 82, 1)" stroke-width="1.5"></path><path d="M1602.03 75.28L1602.03 75.28" stroke="rgba(101, 19, 82, 1)" stroke-width="1.5"></path><path d="M1602.03 75.28L1604.3 240.52" stroke="rgba(101, 19, 82, 1)" stroke-width="1.5"></path><path d="M1604.3 240.52L1604.3 240.52" stroke="rgba(101, 19, 82, 1)" stroke-width="1.5"></path><path d="M1604.3 240.52L1577.8 404.81" stroke="rgba(101, 19, 82, 1)" stroke-width="1.5"></path><path d="M1577.8 404.81L1577.8 404.81" stroke="rgba(101, 19, 82, 1)" stroke-width="1.5"></path><path d="M1577.8 404.81L1396.98 227.96" stroke="rgba(101, 19, 82, 1)" stroke-width="1.5"></path><path d="M1577.8 404.81L1555.66 696.81" stroke="rgba(101, 19, 82, 1)" stroke-width="1.5"></path><path d="M1577.8 404.81L1285.65 358.91" stroke="rgba(101, 19, 82, 1)" stroke-width="1.5"></path><path d="M1577.8 404.81L1429.51 670.84" stroke="rgba(101, 19, 82, 1)" stroke-width="1.5"></path><path d="M1555.66 696.81L1555.66 696.81" stroke="rgba(101, 19, 82, 1)" stroke-width="1.5"></path><path d="M1555.66 696.81L1306.33 559.28" stroke="rgba(101, 19, 82, 1)" stroke-width="1.5"></path><circle r="5" cx="-61.56" cy="382.02" fill="rgba(101, 19, 82, 1)"></circle><circle r="5" cx="-93.49" cy="519.63" fill="rgba(101, 19, 82, 1)"></circle><circle r="5" cx="-106.56" cy="644.04" fill="rgba(101, 19, 82, 1)"></circle><circle r="5" cx="38.73" cy="386.8" fill="rgba(101, 19, 82, 1)"></circle><circle r="5" cx="61.16" cy="553.33" fill="rgba(101, 19, 82, 1)"></circle><circle r="5" cx="196.13" cy="344.64" fill="rgba(101, 19, 82, 1)"></circle><circle r="5" cx="213.79" cy="490.89" fill="rgba(101, 19, 82, 1)"></circle><circle r="5" cx="216.75" cy="654.87" fill="rgba(101, 19, 82, 1)"></circle><circle r="5" cx="368.82" cy="400.82" fill="rgba(101, 19, 82, 1)"></circle><circle r="5" cx="352.94" cy="514.41" fill="rgba(101, 19, 82, 1)"></circle><circle r="5" cx="399.39" cy="658.42" fill="rgba(101, 19, 82, 1)"></circle><circle r="5" cx="546.82" cy="407.5" fill="rgba(101, 19, 82, 1)"></circle><circle r="5" cx="492.14" cy="514.58" fill="rgba(101, 19, 82, 1)"></circle><circle r="5" cx="560.18" cy="707.97" fill="rgba(101, 19, 82, 1)"></circle><circle r="5" cx="648.78" cy="247.53" fill="rgba(101, 19, 82, 1)"></circle><circle r="5" cx="704.85" cy="343.2" fill="rgba(101, 19, 82, 1)"></circle><circle r="5" cx="687.73" cy="549.07" fill="rgba(101, 19, 82, 1)"></circle><circle r="5" cx="637.75" cy="663.24" fill="rgba(101, 19, 82, 1)"></circle><circle r="5" cx="839.94" cy="226.53" fill="rgba(101, 19, 82, 1)"></circle><circle r="5" cx="806.72" cy="339.36" fill="rgba(101, 19, 82, 1)"></circle><circle r="5" cx="812.99" cy="530.82" fill="rgba(101, 19, 82, 1)"></circle><circle r="5" cx="840.41" cy="685" fill="rgba(101, 19, 82, 1)"></circle><circle r="5" cx="957.35" cy="-107.48" fill="rgba(101, 19, 82, 1)"></circle><circle r="5" cx="1007.95" cy="96.39" fill="rgba(101, 19, 82, 1)"></circle><circle r="5" cx="946.96" cy="259.97" fill="rgba(101, 19, 82, 1)"></circle><circle r="5" cx="999.06" cy="392.04" fill="rgba(101, 19, 82, 1)"></circle><circle r="5" cx="979.47" cy="493.38" fill="rgba(101, 19, 82, 1)"></circle><circle r="5" cx="970.43" cy="685.27" fill="rgba(101, 19, 82, 1)"></circle><circle r="5" cx="1088.46" cy="-88.09" fill="rgba(101, 19, 82, 1)"></circle><circle r="5" cx="1088.24" cy="38.06" fill="rgba(101, 19, 82, 1)"></circle><circle r="5" cx="1146.15" cy="246.03" fill="rgba(101, 19, 82, 1)"></circle><circle r="5" cx="1123.08" cy="389.74" fill="rgba(101, 19, 82, 1)"></circle><circle r="5" cx="1092.22" cy="517.63" fill="rgba(101, 19, 82, 1)"></circle><circle r="5" cx="1153.26" cy="696.65" fill="rgba(101, 19, 82, 1)"></circle><circle r="5" cx="1297.79" cy="-91.98" fill="rgba(101, 19, 82, 1)"></circle><circle r="5" cx="1249.54" cy="99.98" fill="rgba(101, 19, 82, 1)"></circle><circle r="5" cx="1285.65" cy="358.91" fill="rgba(101, 19, 82, 1)"></circle><circle r="5" cx="1306.33" cy="559.28" fill="rgba(101, 19, 82, 1)"></circle><circle r="5" cx="1242.27" cy="649.28" fill="rgba(101, 19, 82, 1)"></circle><circle r="5" cx="1436.01" cy="-58.87" fill="rgba(101, 19, 82, 1)"></circle><circle r="5" cx="1438.97" cy="80.6" fill="rgba(101, 19, 82, 1)"></circle><circle r="5" cx="1396.98" cy="227.96" fill="rgba(101, 19, 82, 1)"></circle><circle r="5" cx="1437.02" cy="503.72" fill="rgba(101, 19, 82, 1)"></circle><circle r="5" cx="1429.51" cy="670.84" fill="rgba(101, 19, 82, 1)"></circle><circle r="5" cx="1589.65" cy="-105.26" fill="rgba(101, 19, 82, 1)"></circle><circle r="5" cx="1602.03" cy="75.28" fill="rgba(101, 19, 82, 1)"></circle><circle r="5" cx="1604.3" cy="240.52" fill="rgba(101, 19, 82, 1)"></circle><circle r="5" cx="1577.8" cy="404.81" fill="rgba(101, 19, 82, 1)"></circle><circle r="5" cx="1555.66" cy="696.81" fill="rgba(101, 19, 82, 1)"></circle><path d="M-87.87 511.74L-87.87 511.74" stroke="hsl(285.79999999999995, 77.2%, 51.5%)" stroke-width="1.5"></path><path d="M-87.87 511.74L54.51 491.08" stroke="hsl(285.79999999999995, 77.2%, 51.5%)" stroke-width="1.5"></path><path d="M-87.87 511.74L-92.84 686.99" stroke="hsl(285.79999999999995, 77.2%, 51.5%)" stroke-width="1.5"></path><path d="M-87.87 511.74L42.95 671.99" stroke="hsl(285.79999999999995, 77.2%, 51.5%)" stroke-width="1.5"></path><path d="M373.7 500.79L373.7 500.79" stroke="hsl(285.79999999999995, 77.2%, 51.5%)" stroke-width="1.5"></path><path d="M373.7 500.79L512.88 496.86" stroke="hsl(285.79999999999995, 77.2%, 51.5%)" stroke-width="1.5"></path><path d="M373.7 500.79L212.95 553.46" stroke="hsl(285.79999999999995, 77.2%, 51.5%)" stroke-width="1.5"></path><path d="M373.7 500.79L383.43 690.32" stroke="hsl(285.79999999999995, 77.2%, 51.5%)" stroke-width="1.5"></path><path d="M373.7 500.79L557.62 392.28" stroke="hsl(285.79999999999995, 77.2%, 51.5%)" stroke-width="1.5"></path><path d="M373.7 500.79L534.84 644.58" stroke="hsl(285.79999999999995, 77.2%, 51.5%)" stroke-width="1.5"></path><path d="M557.62 392.28L557.62 392.28" stroke="hsl(285.79999999999995, 77.2%, 51.5%)" stroke-width="1.5"></path><path d="M557.62 392.28L512.88 496.86" stroke="hsl(285.79999999999995, 77.2%, 51.5%)" stroke-width="1.5"></path><path d="M557.62 392.28L644.18 539.66" stroke="hsl(285.79999999999995, 77.2%, 51.5%)" stroke-width="1.5"></path><path d="M557.62 392.28L790.64 408.33" stroke="hsl(285.79999999999995, 77.2%, 51.5%)" stroke-width="1.5"></path><path d="M557.62 392.28L534.84 644.58" stroke="hsl(285.79999999999995, 77.2%, 51.5%)" stroke-width="1.5"></path><path d="M557.62 392.28L803.15 518.2" stroke="hsl(285.79999999999995, 77.2%, 51.5%)" stroke-width="1.5"></path><path d="M1244.92 46.22L1244.92 46.22" stroke="hsl(285.79999999999995, 77.2%, 51.5%)" stroke-width="1.5"></path><path d="M1244.92 46.22L1295.06 -60.67" stroke="hsl(285.79999999999995, 77.2%, 51.5%)" stroke-width="1.5"></path><path d="M1550.71 257.32L1550.71 257.32" stroke="hsl(285.79999999999995, 77.2%, 51.5%)" stroke-width="1.5"></path><path d="M1550.71 257.32L1451.33 193.79" stroke="hsl(285.79999999999995, 77.2%, 51.5%)" stroke-width="1.5"></path><path d="M1550.71 257.32L1611.73 371.45" stroke="hsl(285.79999999999995, 77.2%, 51.5%)" stroke-width="1.5"></path><path d="M1550.71 257.32L1420.65 393.2" stroke="hsl(285.79999999999995, 77.2%, 51.5%)" stroke-width="1.5"></path><path d="M1542.78 674.41L1542.78 674.41" stroke="hsl(285.79999999999995, 77.2%, 51.5%)" stroke-width="1.5"></path><path d="M1542.78 674.41L1405.52 559.82" stroke="hsl(285.79999999999995, 77.2%, 51.5%)" stroke-width="1.5"></path><path d="M1542.78 674.41L1276 547.01" stroke="hsl(285.79999999999995, 77.2%, 51.5%)" stroke-width="1.5"></path><path d="M1542.78 674.41L1240.23 676.38" stroke="hsl(285.79999999999995, 77.2%, 51.5%)" stroke-width="1.5"></path><path d="M1542.78 674.41L1420.65 393.2" stroke="hsl(285.79999999999995, 77.2%, 51.5%)" stroke-width="1.5"></path><path d="M1542.78 674.41L1611.73 371.45" stroke="hsl(285.79999999999995, 77.2%, 51.5%)" stroke-width="1.5"></path><path d="M1542.78 674.41L1306.82 375.94" stroke="hsl(285.79999999999995, 77.2%, 51.5%)" stroke-width="1.5"></path><path d="M-92.84 686.99L-92.84 686.99" stroke="hsl(285.79999999999995, 77.2%, 51.5%)" stroke-width="1.5"></path><path d="M-92.84 686.99L42.95 671.99" stroke="hsl(285.79999999999995, 77.2%, 51.5%)" stroke-width="1.5"></path><path d="M-92.84 686.99L54.51 491.08" stroke="hsl(285.79999999999995, 77.2%, 51.5%)" stroke-width="1.5"></path><path d="M-92.84 686.99L207.95 698.79" stroke="hsl(285.79999999999995, 77.2%, 51.5%)" stroke-width="1.5"></path><path d="M-92.84 686.99L212.95 553.46" stroke="hsl(285.79999999999995, 77.2%, 51.5%)" stroke-width="1.5"></path><path d="M-92.84 686.99L383.43 690.32" stroke="hsl(285.79999999999995, 77.2%, 51.5%)" stroke-width="1.5"></path><path d="M54.51 491.08L54.51 491.08" stroke="hsl(285.79999999999995, 77.2%, 51.5%)" stroke-width="1.5"></path><path d="M54.51 491.08L212.95 553.46" stroke="hsl(285.79999999999995, 77.2%, 51.5%)" stroke-width="1.5"></path><path d="M42.95 671.99L42.95 671.99" stroke="hsl(285.79999999999995, 77.2%, 51.5%)" stroke-width="1.5"></path><path d="M42.95 671.99L207.95 698.79" stroke="hsl(285.79999999999995, 77.2%, 51.5%)" stroke-width="1.5"></path><path d="M42.95 671.99L54.51 491.08" stroke="hsl(285.79999999999995, 77.2%, 51.5%)" stroke-width="1.5"></path><path d="M212.95 553.46L212.95 553.46" stroke="hsl(285.79999999999995, 77.2%, 51.5%)" stroke-width="1.5"></path><path d="M212.95 553.46L207.95 698.79" stroke="hsl(285.79999999999995, 77.2%, 51.5%)" stroke-width="1.5"></path><path d="M212.95 553.46L42.95 671.99" stroke="hsl(285.79999999999995, 77.2%, 51.5%)" stroke-width="1.5"></path><path d="M207.95 698.79L207.95 698.79" stroke="hsl(285.79999999999995, 77.2%, 51.5%)" stroke-width="1.5"></path><path d="M207.95 698.79L383.43 690.32" stroke="hsl(285.79999999999995, 77.2%, 51.5%)" stroke-width="1.5"></path><path d="M207.95 698.79L373.7 500.79" stroke="hsl(285.79999999999995, 77.2%, 51.5%)" stroke-width="1.5"></path><path d="M383.43 690.32L383.43 690.32" stroke="hsl(285.79999999999995, 77.2%, 51.5%)" stroke-width="1.5"></path><path d="M383.43 690.32L534.84 644.58" stroke="hsl(285.79999999999995, 77.2%, 51.5%)" stroke-width="1.5"></path><path d="M512.88 496.86L512.88 496.86" stroke="hsl(285.79999999999995, 77.2%, 51.5%)" stroke-width="1.5"></path><path d="M512.88 496.86L644.18 539.66" stroke="hsl(285.79999999999995, 77.2%, 51.5%)" stroke-width="1.5"></path><path d="M512.88 496.86L534.84 644.58" stroke="hsl(285.79999999999995, 77.2%, 51.5%)" stroke-width="1.5"></path><path d="M512.88 496.86L383.43 690.32" stroke="hsl(285.79999999999995, 77.2%, 51.5%)" stroke-width="1.5"></path><path d="M534.84 644.58L534.84 644.58" stroke="hsl(285.79999999999995, 77.2%, 51.5%)" stroke-width="1.5"></path><path d="M534.84 644.58L647.17 709.78" stroke="hsl(285.79999999999995, 77.2%, 51.5%)" stroke-width="1.5"></path><path d="M644.18 539.66L644.18 539.66" stroke="hsl(285.79999999999995, 77.2%, 51.5%)" stroke-width="1.5"></path><path d="M644.18 539.66L534.84 644.58" stroke="hsl(285.79999999999995, 77.2%, 51.5%)" stroke-width="1.5"></path><path d="M644.18 539.66L803.15 518.2" stroke="hsl(285.79999999999995, 77.2%, 51.5%)" stroke-width="1.5"></path><path d="M644.18 539.66L647.17 709.78" stroke="hsl(285.79999999999995, 77.2%, 51.5%)" stroke-width="1.5"></path><path d="M647.17 709.78L647.17 709.78" stroke="hsl(285.79999999999995, 77.2%, 51.5%)" stroke-width="1.5"></path><path d="M647.17 709.78L803.15 518.2" stroke="hsl(285.79999999999995, 77.2%, 51.5%)" stroke-width="1.5"></path><path d="M647.17 709.78L512.88 496.86" stroke="hsl(285.79999999999995, 77.2%, 51.5%)" stroke-width="1.5"></path><path d="M647.17 709.78L383.43 690.32" stroke="hsl(285.79999999999995, 77.2%, 51.5%)" stroke-width="1.5"></path><path d="M647.17 709.78L557.62 392.28" stroke="hsl(285.79999999999995, 77.2%, 51.5%)" stroke-width="1.5"></path><path d="M790.64 408.33L790.64 408.33" stroke="hsl(285.79999999999995, 77.2%, 51.5%)" stroke-width="1.5"></path><path d="M790.64 408.33L803.15 518.2" stroke="hsl(285.79999999999995, 77.2%, 51.5%)" stroke-width="1.5"></path><path d="M790.64 408.33L974.25 370.91" stroke="hsl(285.79999999999995, 77.2%, 51.5%)" stroke-width="1.5"></path><path d="M803.15 518.2L803.15 518.2" stroke="hsl(285.79999999999995, 77.2%, 51.5%)" stroke-width="1.5"></path><path d="M803.15 518.2L974.25 370.91" stroke="hsl(285.79999999999995, 77.2%, 51.5%)" stroke-width="1.5"></path><path d="M965.29 248.47L965.29 248.47" stroke="hsl(285.79999999999995, 77.2%, 51.5%)" stroke-width="1.5"></path><path d="M965.29 248.47L974.25 370.91" stroke="hsl(285.79999999999995, 77.2%, 51.5%)" stroke-width="1.5"></path><path d="M965.29 248.47L1133.76 227.51" stroke="hsl(285.79999999999995, 77.2%, 51.5%)" stroke-width="1.5"></path><path d="M974.25 370.91L974.25 370.91" stroke="hsl(285.79999999999995, 77.2%, 51.5%)" stroke-width="1.5"></path><path d="M974.25 370.91L1087.84 393.7" stroke="hsl(285.79999999999995, 77.2%, 51.5%)" stroke-width="1.5"></path><path d="M974.25 370.91L1105.1 533.75" stroke="hsl(285.79999999999995, 77.2%, 51.5%)" stroke-width="1.5"></path><path d="M974.25 370.91L1133.76 227.51" stroke="hsl(285.79999999999995, 77.2%, 51.5%)" stroke-width="1.5"></path><path d="M999.59 701.15L999.59 701.15" stroke="hsl(285.79999999999995, 77.2%, 51.5%)" stroke-width="1.5"></path><path d="M999.59 701.15L1087.74 660.36" stroke="hsl(285.79999999999995, 77.2%, 51.5%)" stroke-width="1.5"></path><path d="M999.59 701.15L1105.1 533.75" stroke="hsl(285.79999999999995, 77.2%, 51.5%)" stroke-width="1.5"></path><path d="M999.59 701.15L1240.23 676.38" stroke="hsl(285.79999999999995, 77.2%, 51.5%)" stroke-width="1.5"></path><path d="M1133.76 227.51L1133.76 227.51" stroke="hsl(285.79999999999995, 77.2%, 51.5%)" stroke-width="1.5"></path><path d="M1133.76 227.51L1239.52 200.66" stroke="hsl(285.79999999999995, 77.2%, 51.5%)" stroke-width="1.5"></path><path d="M1133.76 227.51L1087.84 393.7" stroke="hsl(285.79999999999995, 77.2%, 51.5%)" stroke-width="1.5"></path><path d="M1087.84 393.7L1087.84 393.7" stroke="hsl(285.79999999999995, 77.2%, 51.5%)" stroke-width="1.5"></path><path d="M1087.84 393.7L1105.1 533.75" stroke="hsl(285.79999999999995, 77.2%, 51.5%)" stroke-width="1.5"></path><path d="M1087.84 393.7L965.29 248.47" stroke="hsl(285.79999999999995, 77.2%, 51.5%)" stroke-width="1.5"></path><path d="M1105.1 533.75L1105.1 533.75" stroke="hsl(285.79999999999995, 77.2%, 51.5%)" stroke-width="1.5"></path><path d="M1105.1 533.75L1087.74 660.36" stroke="hsl(285.79999999999995, 77.2%, 51.5%)" stroke-width="1.5"></path><path d="M1105.1 533.75L1276 547.01" stroke="hsl(285.79999999999995, 77.2%, 51.5%)" stroke-width="1.5"></path><path d="M1087.74 660.36L1087.74 660.36" stroke="hsl(285.79999999999995, 77.2%, 51.5%)" stroke-width="1.5"></path><path d="M1087.74 660.36L1240.23 676.38" stroke="hsl(285.79999999999995, 77.2%, 51.5%)" stroke-width="1.5"></path><path d="M1295.06 -60.67L1295.06 -60.67" stroke="hsl(285.79999999999995, 77.2%, 51.5%)" stroke-width="1.5"></path><path d="M1295.06 -60.67L1391.26 -49.14" stroke="hsl(285.79999999999995, 77.2%, 51.5%)" stroke-width="1.5"></path><path d="M1239.52 200.66L1239.52 200.66" stroke="hsl(285.79999999999995, 77.2%, 51.5%)" stroke-width="1.5"></path><path d="M1239.52 200.66L1244.92 46.22" stroke="hsl(285.79999999999995, 77.2%, 51.5%)" stroke-width="1.5"></path><path d="M1239.52 200.66L1306.82 375.94" stroke="hsl(285.79999999999995, 77.2%, 51.5%)" stroke-width="1.5"></path><path d="M1239.52 200.66L1451.33 193.79" stroke="hsl(285.79999999999995, 77.2%, 51.5%)" stroke-width="1.5"></path><path d="M1306.82 375.94L1306.82 375.94" stroke="hsl(285.79999999999995, 77.2%, 51.5%)" stroke-width="1.5"></path><path d="M1306.82 375.94L1420.65 393.2" stroke="hsl(285.79999999999995, 77.2%, 51.5%)" stroke-width="1.5"></path><path d="M1306.82 375.94L1276 547.01" stroke="hsl(285.79999999999995, 77.2%, 51.5%)" stroke-width="1.5"></path><path d="M1276 547.01L1276 547.01" stroke="hsl(285.79999999999995, 77.2%, 51.5%)" stroke-width="1.5"></path><path d="M1276 547.01L1405.52 559.82" stroke="hsl(285.79999999999995, 77.2%, 51.5%)" stroke-width="1.5"></path><path d="M1276 547.01L1240.23 676.38" stroke="hsl(285.79999999999995, 77.2%, 51.5%)" stroke-width="1.5"></path><path d="M1240.23 676.38L1240.23 676.38" stroke="hsl(285.79999999999995, 77.2%, 51.5%)" stroke-width="1.5"></path><path d="M1240.23 676.38L1105.1 533.75" stroke="hsl(285.79999999999995, 77.2%, 51.5%)" stroke-width="1.5"></path><path d="M1240.23 676.38L1405.52 559.82" stroke="hsl(285.79999999999995, 77.2%, 51.5%)" stroke-width="1.5"></path><path d="M1391.26 -49.14L1391.26 -49.14" stroke="hsl(285.79999999999995, 77.2%, 51.5%)" stroke-width="1.5"></path><path d="M1391.26 -49.14L1433.97 73.71" stroke="hsl(285.79999999999995, 77.2%, 51.5%)" stroke-width="1.5"></path><path d="M1391.26 -49.14L1244.92 46.22" stroke="hsl(285.79999999999995, 77.2%, 51.5%)" stroke-width="1.5"></path><path d="M1433.97 73.71L1433.97 73.71" stroke="hsl(285.79999999999995, 77.2%, 51.5%)" stroke-width="1.5"></path><path d="M1433.97 73.71L1451.33 193.79" stroke="hsl(285.79999999999995, 77.2%, 51.5%)" stroke-width="1.5"></path><path d="M1433.97 73.71L1244.92 46.22" stroke="hsl(285.79999999999995, 77.2%, 51.5%)" stroke-width="1.5"></path><path d="M1433.97 73.71L1295.06 -60.67" stroke="hsl(285.79999999999995, 77.2%, 51.5%)" stroke-width="1.5"></path><path d="M1433.97 73.71L1593.89 -49.4" stroke="hsl(285.79999999999995, 77.2%, 51.5%)" stroke-width="1.5"></path><path d="M1451.33 193.79L1451.33 193.79" stroke="hsl(285.79999999999995, 77.2%, 51.5%)" stroke-width="1.5"></path><path d="M1451.33 193.79L1420.65 393.2" stroke="hsl(285.79999999999995, 77.2%, 51.5%)" stroke-width="1.5"></path><path d="M1451.33 193.79L1306.82 375.94" stroke="hsl(285.79999999999995, 77.2%, 51.5%)" stroke-width="1.5"></path><path d="M1451.33 193.79L1611.73 371.45" stroke="hsl(285.79999999999995, 77.2%, 51.5%)" stroke-width="1.5"></path><path d="M1420.65 393.2L1420.65 393.2" stroke="hsl(285.79999999999995, 77.2%, 51.5%)" stroke-width="1.5"></path><path d="M1420.65 393.2L1405.52 559.82" stroke="hsl(285.79999999999995, 77.2%, 51.5%)" stroke-width="1.5"></path><path d="M1405.52 559.82L1405.52 559.82" stroke="hsl(285.79999999999995, 77.2%, 51.5%)" stroke-width="1.5"></path><path d="M1593.89 -49.4L1593.89 -49.4" stroke="hsl(285.79999999999995, 77.2%, 51.5%)" stroke-width="1.5"></path><path d="M1593.89 -49.4L1391.26 -49.14" stroke="hsl(285.79999999999995, 77.2%, 51.5%)" stroke-width="1.5"></path><path d="M1593.89 -49.4L1451.33 193.79" stroke="hsl(285.79999999999995, 77.2%, 51.5%)" stroke-width="1.5"></path><path d="M1593.89 -49.4L1295.06 -60.67" stroke="hsl(285.79999999999995, 77.2%, 51.5%)" stroke-width="1.5"></path><path d="M1593.89 -49.4L1550.71 257.32" stroke="hsl(285.79999999999995, 77.2%, 51.5%)" stroke-width="1.5"></path><path d="M1611.73 371.45L1611.73 371.45" stroke="hsl(285.79999999999995, 77.2%, 51.5%)" stroke-width="1.5"></path><path d="M1611.73 371.45L1420.65 393.2" stroke="hsl(285.79999999999995, 77.2%, 51.5%)" stroke-width="1.5"></path><circle r="25" cx="-87.87" cy="511.74" fill="url(&quot;#SvgjsRadialGradient1011&quot;)"></circle><circle r="25" cx="373.7" cy="500.79" fill="url(&quot;#SvgjsRadialGradient1011&quot;)"></circle><circle r="25" cx="557.62" cy="392.28" fill="url(&quot;#SvgjsRadialGradient1011&quot;)"></circle><circle r="25" cx="1244.92" cy="46.22" fill="url(&quot;#SvgjsRadialGradient1011&quot;)"></circle><circle r="25" cx="1550.71" cy="257.32" fill="url(&quot;#SvgjsRadialGradient1011&quot;)"></circle><circle r="25" cx="1542.78" cy="674.41" fill="url(&quot;#SvgjsRadialGradient1011&quot;)"></circle><circle r="5" cx="-92.84" cy="686.99" fill="#c78bd9"></circle><circle r="5" cx="54.51" cy="491.08" fill="#c78bd9"></circle><circle r="5" cx="42.95" cy="671.99" fill="#c78bd9"></circle><circle r="5" cx="212.95" cy="553.46" fill="#c78bd9"></circle><circle r="5" cx="207.95" cy="698.79" fill="#c78bd9"></circle><circle r="5" cx="383.43" cy="690.32" fill="#c78bd9"></circle><circle r="5" cx="512.88" cy="496.86" fill="#c78bd9"></circle><circle r="5" cx="534.84" cy="644.58" fill="#c78bd9"></circle><circle r="5" cx="644.18" cy="539.66" fill="#c78bd9"></circle><circle r="5" cx="647.17" cy="709.78" fill="#c78bd9"></circle><circle r="5" cx="790.64" cy="408.33" fill="#c78bd9"></circle><circle r="5" cx="803.15" cy="518.2" fill="#c78bd9"></circle><circle r="5" cx="965.29" cy="248.47" fill="#c78bd9"></circle><circle r="5" cx="974.25" cy="370.91" fill="#c78bd9"></circle><circle r="5" cx="999.59" cy="701.15" fill="#c78bd9"></circle><circle r="5" cx="1133.76" cy="227.51" fill="#c78bd9"></circle><circle r="5" cx="1087.84" cy="393.7" fill="#c78bd9"></circle><circle r="5" cx="1105.1" cy="533.75" fill="#c78bd9"></circle><circle r="5" cx="1087.74" cy="660.36" fill="#c78bd9"></circle><circle r="5" cx="1295.06" cy="-60.67" fill="#c78bd9"></circle><circle r="5" cx="1239.52" cy="200.66" fill="#c78bd9"></circle><circle r="5" cx="1306.82" cy="375.94" fill="#c78bd9"></circle><circle r="5" cx="1276" cy="547.01" fill="#c78bd9"></circle><circle r="5" cx="1240.23" cy="676.38" fill="#c78bd9"></circle><circle r="5" cx="1391.26" cy="-49.14" fill="#c78bd9"></circle><circle r="5" cx="1433.97" cy="73.71" fill="#c78bd9"></circle><circle r="5" cx="1451.33" cy="193.79" fill="#c78bd9"></circle><circle r="5" cx="1420.65" cy="393.2" fill="#c78bd9"></circle><circle r="5" cx="1405.52" cy="559.82" fill="#c78bd9"></circle><circle r="5" cx="1593.89" cy="-49.4" fill="#c78bd9"></circle><circle r="5" cx="1611.73" cy="371.45" fill="#c78bd9"></circle></g><defs><mask id="SvgjsMask1010"><rect width="1440" height="560" fill="#ffffff"></rect></mask><radialGradient id="SvgjsRadialGradient1011"><stop stop-color="#ffffff" offset="0.1"></stop><stop stop-color="rgba(142, 23, 179, 1)" offset="0.2"></stop><stop stop-color="rgba(142, 23, 179, 0)" offset="1"></stop></radialGradient></defs></svg>