<svg xmlns="http://www.w3.org/2000/svg" version="1.1" xmlns:xlink="http://www.w3.org/1999/xlink" xmlns:svgjs="http://svgjs.dev/svgjs" width="1440" height="560" preserveAspectRatio="none" viewBox="0 0 1440 560"><g mask="url(&quot;#SvgjsMask1004&quot;)" fill="none"><rect width="1440" height="560" x="0" y="0" fill="#0e2a47"></rect><path d="M396.29 193.73L429.59 193.73L429.59 240.15L396.29 240.15z" stroke="rgba(15, 43, 205, 1)"></path><path d="M1286.16 329.02L1333.89 329.02L1333.89 343.69L1286.16 343.69z" stroke="rgba(149, 140, 140, 1)"></path><path d="M317.42 422.73L349.62 422.73L349.62 454.93L317.42 454.93z" fill="rgba(15, 43, 205, 1)"></path><path d="M663.27 497.63 a6.51 6.51 0 1 0 13.02 0 a6.51 6.51 0 1 0 -13.02 0z" stroke="rgba(149, 140, 140, 1)"></path><path d="M699.91 98.76 a34.71 34.71 0 1 0 69.42 0 a34.71 34.71 0 1 0 -69.42 0z" stroke="rgba(15, 43, 205, 1)"></path><path d="M884.75 563.43a53.76 53.76 0 1 0 4.71-107.42z" fill="rgba(149, 140, 140, 1)"></path><path d="M936.03 492.6 a53.21 53.21 0 1 0 106.42 0 a53.21 53.21 0 1 0 -106.42 0z" stroke="rgba(121, 158, 217, 1)"></path><path d="M621.81 11.55L665.89 11.55L665.89 43.68L621.81 43.68z" fill="rgba(149, 140, 140, 1)"></path><path d="M1026.97 13.84L1073.03 13.84L1073.03 46.66L1026.97 46.66z" stroke="rgba(149, 140, 140, 1)"></path><path d="M460.4 516.14a14.57 14.57 0 1 0-19.52 21.63z" fill="rgba(121, 158, 217, 1)"></path><path d="M755.31 109.61 a30.19 30.19 0 1 0 60.38 0 a30.19 30.19 0 1 0 -60.38 0z" stroke="rgba(149, 140, 140, 1)"></path><path d="M694.79 214.28L749.42 214.28L749.42 266.42L694.79 266.42z" stroke="rgba(121, 158, 217, 1)"></path><path d="M239.19 343.67L269.65 343.67L269.65 354.31L239.19 354.31z" fill="rgba(15, 43, 205, 1)"></path><path d="M338.38 393.16L346.01 393.16L346.01 415.83L338.38 415.83z" fill="rgba(15, 43, 205, 1)"></path><path d="M640.29 196.25a22.22 22.22 0 1 0-12.06 42.78z" fill="rgba(149, 140, 140, 1)"></path><path d="M436.46 139.69L478.8 139.69L478.8 187.19L436.46 187.19z" fill="rgba(15, 43, 205, 1)"></path><path d="M1388.15 441.76 a5.69 5.69 0 1 0 11.38 0 a5.69 5.69 0 1 0 -11.38 0z" stroke="rgba(15, 43, 205, 1)"></path><path d="M233.9 555.19 a11.13 11.13 0 1 0 22.26 0 a11.13 11.13 0 1 0 -22.26 0z" fill="rgba(149, 140, 140, 1)"></path><path d="M766.13 361.79 a40.64 40.64 0 1 0 81.28 0 a40.64 40.64 0 1 0 -81.28 0z" stroke="rgba(15, 43, 205, 1)"></path><path d="M238.19 479.28 a21.42 21.42 0 1 0 42.84 0 a21.42 21.42 0 1 0 -42.84 0z" stroke="rgba(15, 43, 205, 1)"></path><path d="M1041.95 288.39L1055.77 288.39L1055.77 302.21L1041.95 302.21z" stroke="rgba(15, 43, 205, 1)"></path><path d="M512.76 119 a36.75 36.75 0 1 0 73.5 0 a36.75 36.75 0 1 0 -73.5 0z" fill="rgba(149, 140, 140, 1)"></path><path d="M1054.63 45.21L1102.65 45.21L1102.65 93.23L1054.63 93.23z" fill="rgba(15, 43, 205, 1)"></path><path d="M517.88 397.16a7.5 7.5 0 1 0 14.68 3.08z" fill="rgba(15, 43, 205, 1)"></path><path d="M187.14 96.61L233.08 96.61L233.08 142.55L187.14 142.55z" fill="rgba(15, 43, 205, 1)"></path><path d="M804.77 122.84a43.9 43.9 0 1 0-49.14 72.76z" fill="rgba(149, 140, 140, 1)"></path><path d="M773.73 338.92L786.8 338.92L786.8 350.91L773.73 350.91z" fill="rgba(149, 140, 140, 1)"></path><path d="M1098.12 173.99L1137.71 173.99L1137.71 177.28L1098.12 177.28z" fill="rgba(149, 140, 140, 1)"></path><path d="M1373.16 60.4 a39.15 39.15 0 1 0 78.3 0 a39.15 39.15 0 1 0 -78.3 0z" stroke="rgba(121, 158, 217, 1)"></path><path d="M643.5 93.88L657.32 93.88L657.32 107.7L643.5 107.7z" stroke="rgba(121, 158, 217, 1)"></path><path d="M1094.29 435.71L1097.48 435.71L1097.48 442.53L1094.29 442.53z" fill="rgba(121, 158, 217, 1)"></path><path d="M233.11 273.92L261.24 273.92L261.24 302.05L233.11 302.05z" stroke="rgba(121, 158, 217, 1)"></path><path d="M1292.93 514.64 a6.39 6.39 0 1 0 12.78 0 a6.39 6.39 0 1 0 -12.78 0z" fill="rgba(149, 140, 140, 1)"></path></g><defs><mask id="SvgjsMask1004"><rect width="1440" height="560" fill="#ffffff"></rect></mask></defs></svg>