<svg xmlns="http://www.w3.org/2000/svg" version="1.1" xmlns:xlink="http://www.w3.org/1999/xlink" xmlns:svgjs="http://svgjs.dev/svgjs" width="1440" height="560" preserveAspectRatio="none" viewBox="0 0 1440 560"><g mask="url(&quot;#SvgjsMask1002&quot;)" fill="none"><rect width="1440" height="560" x="0" y="0" fill="#0e2a47"></rect><path d="M720 672.5C838.18 674.3 966.87 693.54 1056.46 616.46 1150.24 535.75 1181.01 403.62 1176.04 280 1171.28 161.27 1116.2 51.83 1030.49-30.49 946.61-111.07 836.11-164.72 720-158.06 609.16-151.7 524.67-72.21 443.17 3.17 356.78 83.07 256.14 162.73 246.48 280 236.32 403.66 298.03 527.28 393.53 606.47 482.41 680.15 604.57 670.76 720 672.5" fill="#1c538e"></path><path d="M720 533.97C796.47 535.13 879.74 547.59 937.71 497.71 998.39 445.48 1018.3 359.99 1015.09 280 1012.01 203.18 976.37 132.36 920.9 79.1 866.63 26.96 795.13-7.76 720-3.45 648.28 0.67 593.61 52.1 540.88 100.88 484.97 152.58 419.85 204.12 413.61 280 407.03 360.01 446.96 440.01 508.76 491.24 566.26 538.92 645.31 532.85 720 533.97" fill="#2774c6"></path><path d="M720 395.44C754.76 395.97 792.61 401.63 818.96 378.96 846.54 355.22 855.59 316.36 854.13 280 852.73 245.08 836.53 212.89 811.32 188.68 786.65 164.98 754.15 149.2 720 151.16 687.4 153.03 662.55 176.41 638.58 198.58 613.17 222.08 583.57 245.51 580.73 280 577.74 316.37 595.89 352.73 623.98 376.02 650.12 397.69 686.05 394.93 720 395.44" fill="#488fdb"></path></g><defs><mask id="SvgjsMask1002"><rect width="1440" height="560" fill="#ffffff"></rect></mask></defs></svg>